# AST/ASF file generated using VICON BodyLanguage
# -----------------------------------------------
:version 1.10
:name VICON
:units
  mass 1.0
  length 0.45
  angle deg
:documentation
   .ast/.asf automatically generated from VICON data using
   VICON BodyBuilder and BodyLanguage model FoxedUp or BRILLIANT.MOD
:root
   order TX TY TZ RX RY RZ
   axis XYZ
   position 0 0 0  
   orientation 0 0 0 
:bonedata
  begin
     id 1 
     name lhipjoint
     direction 0.653368 -0.678499 0.335782 
     length 2.51848 
     axis 0 0 0  XYZ
  end
  begin
     id 2 
     name lfemur
     direction 0.34202 -0.939693 0  
     length 6.57749  
     axis 0 0 20  XYZ
    dof rx ry rz
    limits (-160.0 20.0)
           (-70.0 70.0)
           (-60.0 70.0)
  end
  begin
     id 3 
     name ltibia
     direction 0.34202 -0.939693 0   
     length 7.94618   
     axis 0 0 20   XYZ
    dof rx
    limits (-10.0 170.0)
  end
  begin
     id 4 
     name lfoot
     direction 0.0811271 -0.222895 0.971461   
     length 2.31339   
     axis -90 7.62852e-016 20   XYZ
    dof rx rz
    limits (-45.0 90.0)
           (-70.0 20.0)
  end
  begin
     id 5 
     name ltoes
     direction 1.53568e-011 -4.21885e-011 1   
     length 1.15935   
     axis -90 7.62852e-016 20   XYZ
    dof rx
    limits (-90.0 20.0)
  end
  begin
     id 6 
     name rhipjoint
     direction -0.640058 -0.688614 0.340788   
     length 2.48149  
     axis 0 0 0  XYZ 
  end
  begin
     id 7 
     name rfemur
     direction -0.34202 -0.939693 0   
     length 6.57875   
     axis 0 0 -20   XYZ
    dof rx ry rz
    limits (-160.0 20.0)
           (-70.0 70.0)
           (-70.0 60.0)
  end
  begin
     id 8 
     name rtibia
     direction -0.34202 -0.939693 0   
     length 7.977   
     axis 0 0 -20   XYZ
    dof rx
    limits (-10.0 170.0)
 end
 begin
     id 9 
     name rfoot
     direction -0.0979793 -0.269196 0.958089   
     length 2.19857  
     axis -90 -7.62852e-016 -20   XYZ
    dof rx rz
    limits (-45.0 90.0)
           (-20.0 70.0)
  end
  begin
     id 10 
     name rtoes
     direction -1.53556e-011 -4.21868e-011 1   
     length 1.09838   
     axis -90 -7.62852e-016 -20   XYZ
    dof rx
    limits (-90.0 20.0)
  end
  begin
     id 11 
     name lowerback
     direction 0.0149039 0.998517 -0.0523597   
     length 2.10809   
     axis 0 0 0   XYZ
    dof rx ry rz
    limits (-20.0 45.0)
           (-30.0 30.0)
           (-30.0 30.0)
  end
  begin
     id 12 
     name upperback
     direction -0.00882659 0.999418 -0.0329624   
     length 2.1102   
     axis 0 0 0   XYZ
    dof rx ry rz
    limits (-20.0 45.0)
           (-30.0 30.0)
           (-30.0 30.0)
  end
  begin
     id 13 
     name thorax
     direction -0.0165585 0.999826 -0.0085833   
     length 2.11039   
     axis 0 0 0   XYZ
    dof rx ry rz
    limits (-20.0 45.0)
           (-30.0 30.0)
           (-30.0 30.0)
  end
  begin
     id 14 
     name lowerneck
     direction -0.0130877 0.999911 0.00260353   
     length 1.73253   
     axis 0 0 0   XYZ
    dof rx ry rz
    limits (-20.0 45.0)
           (-30.0 30.0)
           (-30.0 30.0)
  end
  begin
     id 15 
     name upperneck
     direction -0.0348454 0.928205 -0.370435   
     length 1.66692   
     axis 0 0 0   XYZ
    dof rx ry rz
    limits (-20.0 45.0)
           (-30.0 30.0)
           (-30.0 30.0)
  end
  begin
     id 16
     name head
     direction -0.00807754 0.992494 -0.122026  
     length 1.72765  
     axis 0 0 0   XYZ
    dof rx ry rz
    limits (-20.0 45.0)
           (-30.0 30.0)
           (-30.0 30.0)
  end
  begin
     id 17 
     name lclavicle
     direction 0.987582 0.144023 0.0627671  
     length 3.49235  
     axis 0 0 0   XYZ
    dof ry rz
    limits (-20.0 10.0)
           (0.0 20.0)
  end
  begin
     id 18 
     name lhumerus
     direction 1 -4.48958e-011 -1.45183e-018   
     length 5.41917   
     axis 180 -30 -90   XYZ
    dof rx ry rz
    limits (-60.0 90.0)
           (-90.0 90.0)
           (-90.0 90.0)
  end
  begin
     id 19
     name lradius
     direction 1 -4.48999e-011 5.75106e-027   
     length 2.44373   
     axis 180 -30 -90   XYZ
    dof rx
    limits (-10.0 170.0)
  end
  begin
     id 20
     name lwrist
     direction 1 -4.48987e-011 1.53461e-026   
     length 1.22186   
     axis -1.09697e-014 90 90   XYZ
    dof ry
    limits (-180.0 0.0)
 end
  begin
     id 21 
     name lhand
     direction 1 -4.48881e-011 3.06923e-026   
     length 0.727502   
     axis -1.95843e-014 90 90   XYZ
    dof rx rz
    limits (-90.0 90.0)
           (-45.0 45.0)
  end
  begin
     id 22 
     name lfingers
     direction 1 -4.48907e-011 6.13845e-026   
     length 0.586531   
     axis -3.91686e-014 90 90   XYZ
    dof rx
    limits (0.0 90.0)
  end
  begin
     id 23
     name lthumb
     direction 0.707107 -6.3487e-011 0.707107   
     length 0.842145   
     axis -90 45 2.85299e-015   XYZ
    dof rx rz
    limits (-45.0 45.0)
           (-45.0 45.0)
  end
  begin
     id 24 
     name rclavicle
     direction -0.980998 0.169556 0.0943023   
     length 3.29272  
     axis 0 0 0   XYZ 
    dof ry rz
    limits (-10.0 20.0)
           (-20.0 0.0)
  end
  begin
     id 25 
     name rhumerus
     direction -1 -1.83355e-005 2.45537e-005  
     length 5.58976   
     axis 180 30 90   XYZ
    dof rx ry rz
    limits (-90.0 60.0)
           (-90.0 90.0)
           (-90.0 90.0)
  end
  begin
     id 26 
     name rradius
     direction -1 -4.48967e-011 5.97228e-027   
     length 2.4806   
     axis 180 30 90   XYZ
    dof rx
    limits (-10.0 170.0)
  end
  begin
     id 27 
     name rwrist
     direction -1 -4.48963e-011 1.53461e-026   
     length 1.2403   
     axis -1.09697e-014 -90 -90   XYZ
    dof ry
    limits (-180.0 0.0)
  end
  begin
     id 28
     name rhand
     direction -1 -4.48881e-011 3.06923e-026   
     length 0.816009   
     axis -1.95843e-014 -90 -90   XYZ
    dof rx rz
    limits (-90.0 90.0)
           (-45.0 45.0)
  end
  begin
     id 29
     name rfingers
     direction -1 -4.49018e-011 6.13845e-026   
     length 0.657887   
     axis -3.91686e-014 -90 -90   XYZ
    dof rx
    limits (0.0 90.0)
  end
  begin
     id 30
     name rthumb
     direction -0.707107 -6.34872e-011 0.707107   
     length 0.944599   
     axis -90 -45 -2.85299e-015   XYZ
    dof rx rz
    limits (-45.0 45.0)
           (-45.0 45.0)
  end
:hierarchy
  begin
    root lhipjoint rhipjoint lowerback
    lhipjoint lfemur
    lfemur ltibia
    ltibia lfoot
    lfoot ltoes
    rhipjoint rfemur
    rfemur rtibia
    rtibia rfoot
    rfoot rtoes
    lowerback upperback
    upperback thorax
    thorax lowerneck lclavicle rclavicle
    lowerneck upperneck
    upperneck head
    lclavicle lhumerus
    lhumerus lradius
    lradius lwrist
    lwrist lhand lthumb
    lhand lfingers
    rclavicle rhumerus
    rhumerus rradius
    rradius rwrist
    rwrist rhand rthumb
    rhand rfingers
  end

#!OML:ASF F:\VICON\USERDATA\INSTALL\rory3\rory3.ASF
:FULLY-SPECIFIED
:DEGREES
1
root 0.636967 16.3739 34.5317 -157.529 6.27183 -179.127
lowerback -5.17329 -0.623421 -2.96281
upperback -5.81064 -0.312395 0.339491
thorax -3.0714 0.14776 1.99214
lowerneck -14.4118 -1.15013 2.12667
upperneck 37.1053 2.31271 -2.14738
head 15.5026 2.22431 -0.551572
rclavicle -4.82053e-015 7.15625e-015
rhumerus -44.7239 28.7706 -95.955
rradius 81.6731
rwrist -39.577
rhand 5.20074 6.10839
rfingers 7.12502
rthumb 30.5614 -21.3757
lclavicle -4.82053e-015 7.15625e-015
lhumerus -42.3826 -44.2816 104.176
lradius 72.5681
lwrist 27.2529
lhand 21.1098 17.6782
lfingers 7.12502
lthumb 45.5675 40.9507
rfemur -51.4355 -10.774 23.6671
rtibia 79.2474
rfoot -9.37791 -22.1492
rtoes 17.8861
lfemur -41.9221 8.36377 -32.1927
ltibia 47.6237
lfoot -42.8449 20.5941
ltoes 4.65788
2
root 0.634041 16.3649 34.5 -157.442 6.36358 -178.937
lowerback -5.15808 -0.704122 -2.65956
upperback -5.85055 -0.424671 0.44915
thorax -3.11572 0.0850058 1.93257
lowerneck -14.3575 -0.933002 2.04029
upperneck 36.7254 2.62846 -2.33195
head 15.3164 2.28832 -0.570535
rclavicle -1.72943e-014 -1.59028e-015
rhumerus -44.2788 28.6786 -95.7372
rradius 81.1682
rwrist -39.4709
rhand 7.59321 2.46606
rfingers 7.12502
rthumb 32.8402 -24.5677
lclavicle -1.72943e-014 -1.59028e-015
lhumerus -42.3181 -44.9564 104.888
lradius 71.36
lwrist 25.8087
lhand 19.9251 16.7199
lfingers 7.12502
lthumb 44.4653 40.427
rfemur -52.358 -9.9927 23.4878
rtibia 78.1247
rfoot -10.623 -22.348
rtoes 18.3397
lfemur -41.9071 8.02161 -31.9253
ltibia 47.7582
lfoot -43.6272 20.3752
ltoes 5.70992
3
root 0.635593 16.3587 34.4759 -157.271 6.38357 -178.737
lowerback -5.17901 -0.822159 -2.45332
upperback -5.76129 -0.595348 0.609926
thorax -3.00201 -0.012289 1.97864
lowerneck -14.6696 -0.678447 1.90085
upperneck 36.3149 2.91003 -2.42224
head 15.2011 2.32015 -0.547342
rclavicle 5.73991e-015 3.18055e-015
rhumerus -43.269 28.7335 -95.3728
rradius 80.2745
rwrist -39.4663
rhand 7.82659 2.08113
rfingers 7.12502
rthumb 33.0621 -24.9059
lclavicle 5.73991e-015 3.18055e-015
lhumerus -41.5386 -45.5393 104.999
lradius 70.0923
lwrist 24.6978
lhand 19.2638 16.6571
lfingers 7.12502
lthumb 43.8487 40.5962
rfemur -53.3894 -9.15466 23.3612
rtibia 76.8332
rfoot -10.8022 -23.0608
rtoes 22.5684
lfemur -42.0246 7.81415 -31.6609
ltibia 47.8721
lfoot -43.9154 20.3325
ltoes 6.04596
4
root 0.640663 16.3554 34.4568 -157.348 6.16679 -178.709
lowerback -4.76714 -1.0159 -2.38747
upperback -5.67463 -0.885808 0.693878
thorax -3.12636 -0.16691 2.02535
lowerneck -14.9228 -0.452573 1.88338
upperneck 35.9195 3.11459 -2.4909
head 15.0787 2.34551 -0.548677
rclavicle -2.00773e-014 1.78906e-015
rhumerus -42.2482 28.8135 -95.1473
rradius 79.1528
rwrist -39.4673
rhand 5.54163 6.4128
rfingers 7.12502
rthumb 30.8865 -21.0103
lclavicle -2.00773e-014 1.78906e-015
lhumerus -40.7832 -46.0828 104.971
lradius 68.7326
lwrist 23.0372
lhand 19.5982 16.6223
lfingers 7.12502
lthumb 44.1606 40.445
rfemur -54.2464 -8.61616 23.2072
rtibia 75.4613
rfoot -8.91838 -24.3313
rtoes 24.3721
lfemur -41.8728 7.63113 -31.5035
ltibia 47.9436
lfoot -43.9433 20.3851
ltoes 5.43881
5
root 0.640751 16.3468 34.418 -157.427 6.36169 -178.646
lowerback -4.67417 -1.07168 -2.34462
upperback -5.49103 -0.986679 0.727301
thorax -2.98193 -0.233155 2.03416
lowerneck -15.3426 -0.240207 1.85541
upperneck 35.6367 3.29988 -2.52073
head 15.0486 2.36735 -0.531749
rclavicle 5.66536e-015 -1.39149e-015
rhumerus -41.0746 28.7647 -94.8146
rradius 77.8529
rwrist -39.4435
rhand 8.28623 1.72417
rfingers 7.12502
rthumb 33.4991 -25.1694
lclavicle 5.66536e-015 -1.39149e-015
lhumerus -39.993 -46.7609 104.916
lradius 67.2749
lwrist 21.1664
lhand 20.1129 16.4223
lfingers 7.12502
lthumb 44.6403 40.0621
rfemur -55.0664 -7.93413 23.0422
rtibia 73.917
rfoot -12.2636 -22.7766
rtoes 0.744888
lfemur -41.6462 7.5094 -31.4072
ltibia 47.9703
lfoot -44.4012 20.3128
ltoes 6.02446
6
root 0.644888 16.3385 34.3879 -157.447 6.33271 -178.67
lowerback -4.43979 -1.14749 -2.34563
upperback -5.5661 -1.09175 0.733756
thorax -3.18565 -0.280853 2.043
lowerneck -15.3036 -0.118837 1.9366
upperneck 35.3828 3.41012 -2.59108
head 14.9255 2.3982 -0.562474
rclavicle -1.31198e-014 -4.77083e-015
rhumerus -40.5433 28.3762 -94.6147
rradius 76.6467
rwrist -39.404
rhand 7.75306 2.98886
rfingers 7.12502
rthumb 32.9922 -24.013
lclavicle -1.31198e-014 -4.77083e-015
lhumerus -39.732 -47.4346 105.285
lradius 65.6928
lwrist 19.3183
lhand 20.7006 15.9569
lfingers 7.12502
lthumb 45.1872 39.3824
rfemur -55.8088 -7.3475 22.7681
rtibia 72.2549
rfoot -12.3129 -23.6285
rtoes -1.99426
lfemur -41.5274 7.41958 -31.3864
ltibia 47.9676
lfoot -44.3784 20.5364
ltoes 5.45032
7
root 0.647379 16.3468 34.351 -157.422 6.45391 -178.387
lowerback -4.2778 -1.16972 -2.12289
upperback -5.70111 -1.11668 0.846714
thorax -3.41764 -0.289865 2.0376
lowerneck -15.0274 0.0242338 1.99858
upperneck 35.0389 3.60127 -2.74556
head 14.7114 2.45702 -0.612927
rclavicle -1.39149e-014 -8.15017e-015
rhumerus -40.203 28.0199 -94.4315
rradius 75.3986
rwrist -39.1766
rhand 6.12994 6.59469
rfingers 7.12502
rthumb 31.4471 -20.7206
lclavicle -1.39149e-014 -8.15017e-015
lhumerus -39.682 -48.0374 105.88
lradius 64.0981
lwrist 17.5777
lhand 20.8796 15.8928
lfingers 7.12502
lthumb 45.3536 39.2517
rfemur -56.4093 -6.44384 22.6005
rtibia 70.5804
rfoot -14.7393 -23.0833
rtoes 2.48349
lfemur -41.3142 7.25717 -31.0181
ltibia 47.8785
lfoot -44.6603 20.7874
ltoes 5.3977
8
root 0.654467 16.3449 34.318 -157.427 6.368 -178.189
lowerback -3.97161 -1.30463 -1.96565
upperback -5.79129 -1.30007 0.981036
thorax -3.67474 -0.379198 2.09194
lowerneck -15.0189 0.198694 1.96733
upperneck 34.7517 3.81941 -2.83325
head 14.5858 2.51272 -0.61319
rclavicle 2.25621e-014 2.5842e-015
rhumerus -39.7053 27.8179 -94.2319
rradius 73.9711
rwrist -39.2749
rhand 5.78697 7.93202
rfingers 7.12502
rthumb 31.1203 -19.4465
lclavicle 2.25621e-014 2.5842e-015
lhumerus -39.6733 -48.8291 106.513
lradius 62.3479
lwrist 14.8932
lhand 20.3564 15.5467
lfingers 7.12502
lthumb 44.867 39.0984
rfemur -57.0426 -5.78504 22.6459
rtibia 68.5881
rfoot -13.6557 -23.9392
rtoes -3.52228
lfemur -41.0954 7.12495 -30.6995
ltibia 47.7473
lfoot -44.818 20.8825
ltoes 5.82667
9
root 0.663179 16.359 34.2888 -157.42 6.25451 -178.12
lowerback -3.58765 -1.47394 -1.9669
upperback -5.93067 -1.523 1.14499
thorax -4.02135 -0.477728 2.26999
lowerneck -14.9782 0.321524 1.88535
upperneck 34.4459 3.99214 -2.97311
head 14.4445 2.5368 -0.633818
rclavicle 9.98893e-015 7.7526e-015
rhumerus -39.2033 27.633 -93.9155
rradius 72.3725
rwrist -39.4111
rhand 6.22076 7.99054
rfingers 7.12502
rthumb 31.5337 -19.3078
lclavicle 9.98893e-015 7.7526e-015
lhumerus -38.9006 -48.9812 106.437
lradius 60.4222
lwrist 13.1385
lhand 21.6004 15.4032
lfingers 7.12502
lthumb 46.0229 38.4881
rfemur -57.4727 -4.9185 22.1608
rtibia 66.8049
rfoot -17.1112 -22.2814
rtoes 5.40214
lfemur -40.8021 7.01588 -30.5171
ltibia 47.4354
lfoot -44.9715 20.8972
ltoes 6.07752
10
root 0.670933 16.3846 34.2546 -157.427 5.92197 -178.068
lowerback -3.21755 -1.62291 -1.98015
upperback -5.95091 -1.73025 1.29796
thorax -4.23561 -0.576214 2.44483
lowerneck -15.4802 0.340445 1.98088
upperneck 34.3247 3.95529 -3.18551
head 14.5099 2.46771 -0.744578
rclavicle 1.07344e-014 1.03368e-014
rhumerus -38.6195 27.2391 -93.3805
rradius 71.0634
rwrist -39.3834
rhand 6.40546 7.609
rfingers 7.12502
rthumb 31.7096 -19.6548
lclavicle 1.07344e-014 1.03368e-014
lhumerus -37.9345 -49.8061 106.424
lradius 58.2185
lwrist 11.162
lhand 20.6688 14.6589
lfingers 7.12502
lthumb 45.1576 38.0961
rfemur -57.9806 -4.49352 21.9658
rtibia 64.8574
rfoot -18.5488 -21.6094
rtoes 8.8951
lfemur -40.4148 7.0432 -30.3552
ltibia 47.01
lfoot -44.7298 20.8722
ltoes 5.52919
11
root 0.676865 16.4138 34.2157 -157.476 5.53613 -178.102
lowerback -2.43228 -1.79403 -2.14056
upperback -6.17017 -1.96249 1.4503
thorax -4.88798 -0.6652 2.71998
lowerneck -16.0764 0.344043 2.06822
upperneck 34.4686 3.93458 -3.3181
head 14.7179 2.42918 -0.813919
rclavicle -1.92573e-014 1.98785e-015
rhumerus -38.7217 26.831 -92.9523
rradius 70.17
rwrist -39.2492
rhand 6.16688 7.00536
rfingers 7.12502
rthumb 31.4823 -20.3031
lclavicle -1.92573e-014 1.98785e-015
lhumerus -37.5422 -50.5392 106.826
lradius 56.0801
lwrist 8.79318
lhand 18.5852 14.034
lfingers 7.12502
lthumb 43.2149 38.2036
rfemur -58.5436 -4.2223 21.7779
rtibia 62.9157
rfoot -18.6574 -21.7666
rtoes 8.55362
lfemur -39.8885 6.86131 -30.2196
ltibia 46.4643
lfoot -44.4875 20.7877
ltoes 5.26437
12
root 0.68355 16.4358 34.1786 -157.444 5.38238 -178.274
lowerback -2.14011 -1.82408 -2.25104
upperback -6.16277 -2.02427 1.31268
thorax -5.04341 -0.695896 2.64899
lowerneck -16.7915 0.370377 2.26975
upperneck 34.5061 3.79907 -3.28822
head 14.8975 2.3646 -0.859194
rclavicle -9.44227e-015 1.68967e-014
rhumerus -38.1493 25.935 -92.3713
rradius 68.8567
rwrist -39.497
rhand 6.4505 6.23368
rfingers 7.12502
rthumb 31.7525 -21.0216
lclavicle -9.44227e-015 1.68967e-014
lhumerus -36.71 -51.732 106.613
lradius 54.0019
lwrist 6.31406
lhand 20.9323 13.947
lfingers 7.12502
lthumb 45.4025 37.2862
rfemur -59.209 -3.69585 21.2895
rtibia 60.9451
rfoot -18.6814 -21.7394
rtoes 9.96036
lfemur -39.4807 6.62609 -30.2862
ltibia 45.8962
lfoot -44.2537 20.8347
ltoes 5.0167
13
root 0.691035 16.4545 34.138 -157.349 5.23511 -178.269
lowerback -2.0427 -1.91583 -2.3424
upperback -6.14341 -2.1523 1.37961
thorax -5.06512 -0.755346 2.77492
lowerneck -17.2899 0.501669 2.26033
upperneck 34.3377 3.86 -3.23697
head 14.9349 2.3572 -0.82775
rclavicle 3.32964e-015 7.55382e-015
rhumerus -37.3562 25.3447 -91.6411
rradius 67.2444
rwrist -39.8999
rhand 7.06694 5.45031
rfingers 7.12502
rthumb 32.3394 -21.687
lclavicle 3.32964e-015 7.55382e-015
lhumerus -35.5038 -52.5112 106.124
lradius 51.8366
lwrist 4.01311
lhand 22.0503 13.8924
lfingers 7.12502
lthumb 46.44 36.8014
rfemur -59.8487 -3.02886 20.928
rtibia 58.9707
rfoot -19.1323 -21.409
rtoes 13.1635
lfemur -39.1122 6.506 -30.1942
ltibia 45.3074
lfoot -44.0283 20.8505
ltoes 5.14964
